:SAMPLES-PER-SECOND 30
:FULLY-SPECIFIED
:DEGREES
76
root  -38.9799 36.7209 -26.7109 -120.484 -89.6923 147.145
RightUpLeg  -70.1017 -24.9391 18.1481
RightLeg  35.4421 8.52172 6.21068
RightFoot  7.00558 1.22521 -7.24924
RightToes  0.00048216 0.542163 -0.142577
Spine  68.6928 -5.1392 9.87321
Spine1  5.74123 2.33848 -2.6953
HEad  -39.9555 -11.9669 3.64776
LeftShoulder1  7.23336 -26.7008 -17.1005
LeftArm  -59.3211 -67.4945 9.39303
LeftForeArm  12.1817 -1.28171 -0.495686
LeftHand  -0.25398 0.0180481 5.50724
RightShoulder  3.68853 18.2513 9.59916
RightArm  -58.7177 49.7391 -20.9009
RightForeArm  -6.99654 -2.69974 1.36168
RightHand  -0.478155 4.10111 -6.1637
LeftUpLeg  -68.9359 19.969 -17.179
LeftLeg  45.9682 5.43211 6.39724
LeftFoot  0.505714 -0.644635 6.17967
LeftToes  1.06243e-005 4.65856e-005 -8.18505e-006
77
root  -39.5834 36.449 -27.3754 -1.59819 -88.5026 31.1367
RightUpLeg  -74.7587 -25.3816 21.9511
RightLeg  38.9183 7.68404 6.33643
RightFoot  5.11883 1.33582 -8.95806
RightToes  0.00048216 0.542163 -0.142577
Spine  70.6167 -5.67289 10.0382
Spine1  4.41412 2.2549 -3.5428
HEad  -40.5732 -11.2959 4.29959
LeftShoulder1  6.83635 -27.2073 -15.2596
LeftArm  -67.87 -67.251 17.5852
LeftForeArm  10.1833 -2.55659 0.382821
LeftHand  -0.25398 0.0180481 5.50724
RightShoulder  3.46792 18.7862 8.03709
RightArm  -61.6238 48.2795 -23.5367
RightForeArm  -11.5423 -2.9331 0.715215
RightHand  -0.646283 5.80574 -7.089
LeftUpLeg  -73.1788 21.0626 -20.3903
LeftLeg  47.4346 6.57993 8.03395
LeftFoot  -1.08632 -0.575178 6.47882
LeftToes  1.06243e-005 4.65856e-005 -8.18505e-006
78
root  -40.1637 36.2272 -27.9232 27.3029 -87.2824 5.12171
RightUpLeg  -78.7283 -25.1368 25.2849
RightLeg  41.5875 7.07992 6.40021
RightFoot  3.32517 1.32798 -10.1089
RightToes  0.00048216 0.542163 -0.142577
Spine  72.1152 -6.18628 10.2303
Spine1  3.17082 2.1707 -4.5161
HEad  -40.9905 -10.5211 4.74075
LeftShoulder1  6.34951 -27.2763 -13.4825
LeftArm  -74.7507 -66.5375 23.7898
LeftForeArm  7.40163 -3.9482 1.19471
LeftHand  -0.25398 0.0180481 5.50724
RightShoulder  2.99116 19.085 5.43814
RightArm  -62.6521 46.7008 -23.6037
RightForeArm  -15.249 -3.20946 0.110435
RightHand  -0.802814 7.67403 -7.58623
LeftUpLeg  -76.6841 21.7323 -22.6285
LeftLeg  48.0738 6.46106 8.07722
LeftFoot  -3.16404 -0.467148 6.79598
LeftToes  1.06243e-005 4.65856e-005 -8.18505e-006
79
root  -40.6978 36.0731 -28.3867 35.1877 -86.5052 -0.201648
RightUpLeg  -81.8771 -24.3707 27.9577
RightLeg  43.6693 6.612 6.414
RightFoot  1.43265 1.26229 -11.1397
RightToes  0.00048216 0.542163 -0.142577
Spine  73.4892 -5.97613 9.82462
Spine1  2.39876 2.17706 -4.73911
HEad  -41.4819 -9.54756 4.68743
LeftShoulder1  5.9342 -26.9792 -12.2189
LeftArm  -80.5622 -65.556 28.7086
LeftForeArm  4.99396 -5.70605 1.94386
LeftHand  -0.25398 0.0180481 5.50724
RightShoulder  2.43539 19.2482 2.57609
RightArm  -62.7259 45.1142 -23.1914
RightForeArm  -17.3527 -3.19525 -0.265376
RightHand  -0.82811 9.20316 -7.06503
LeftUpLeg  -79.339 22.5226 -24.2954
LeftLeg  48.0538 5.54411 7.00574
LeftFoot  -5.23054 -0.341651 6.97695
LeftToes  1.06243e-005 4.65856e-005 -8.18505e-006
80
root  -41.1776 35.9771 -28.7842 38.2776 -85.8903 -1.0403
RightUpLeg  -84.4215 -23.6675 30.2124
RightLeg  45.0883 6.1015 6.2031
RightFoot  0.381121 1.24032 -11.9925
RightToes  0.00048216 0.542163 -0.142577
Spine  74.5741 -5.48093 9.09688
Spine1  2.05858 2.1183 -4.62538
HEad  -42.1793 -8.36764 4.52659
LeftShoulder1  5.45036 -26.4742 -10.814
LeftArm  -84.8486 -64.573 32.2524
LeftForeArm  4.12948 -7.62485 2.45401
LeftHand  -0.25398 0.0180481 5.50724
RightShoulder  2.02267 19.2031 0.541552
RightArm  -62.607 43.8462 -22.751
RightForeArm  -20.3539 -1.79737 -0.101818
RightHand  -0.773217 10.3125 -6.21553
LeftUpLeg  -81.3915 23.0956 -25.6534
LeftLeg  47.739 4.36072 5.55595
LeftFoot  -6.64854 -0.240032 6.82208
LeftToes  1.06243e-005 4.65856e-005 -8.18505e-006
81
root  -41.5848 35.9394 -29.1071 40.1735 -85.0785 -0.851998
RightUpLeg  -86.6333 -23.1818 32.3552
RightLeg  45.9089 5.69652 5.94447
RightFoot  0.231694 1.27603 -12.5103
RightToes  0.00048216 0.542163 -0.142577
Spine  75.1242 -5.3567 8.59387
Spine1  2.14695 1.94445 -5.00776
HEad  -43.0953 -7.0255 4.54525
LeftShoulder1  4.87781 -25.7739 -9.14672
LeftArm  -87.8686 -64.066 34.8031
LeftForeArm  3.29045 -9.525 2.47068
LeftHand  -0.25398 0.0180481 5.50724
RightShoulder  1.78731 18.6885 -0.424828
RightArm  -64.2359 43.3974 -21.2771
RightForeArm  -25.1086 1.84784 0.14702
RightHand  -0.638089 11.0667 -5.02407
LeftUpLeg  -83.3288 23.2363 -26.6773
LeftLeg  47.504 3.1575 4.11646
LeftFoot  -6.93612 -0.199672 6.2842
LeftToes  1.06243e-005 4.65856e-005 -8.18505e-006
82
root  -41.9073 35.9587 -29.3527 42.6884 -84.26 -1.59429
RightUpLeg  -88.4386 -22.7936 34.2922
RightLeg  46.3934 5.56181 5.89729
RightFoot  0.160117 1.28262 -12.6582
RightToes  0.00048216 0.542163 -0.142577
Spine  75.2028 -5.47395 8.24879
Spine1  2.95967 1.74914 -5.69391
HEad  -44.1383 -5.59236 4.3848
LeftShoulder1  4.44969 -24.8313 -8.10359
LeftArm  -92.2329 -64.1705 36.9848
LeftForeArm  1.53729 -12.1154 1.97477
LeftHand  -0.25398 0.0180481 5.50724
RightShoulder  1.68713 17.5319 -0.451552
RightArm  -69.4043 44.0064 -18.9331
RightForeArm  -28.3086 7.51028 0.0509076
RightHand  -0.313853 11.4965 -2.68979
LeftUpLeg  -85.1875 23.3129 -27.5581
LeftLeg  47.392 2.02318 2.78602
LeftFoot  -6.40262 -0.20334 5.60855
LeftToes  1.06243e-005 4.65856e-005 -8.18505e-006
83
root  -42.1556 35.9954 -29.5248 44.3063 -83.6794 -1.99478
RightUpLeg  -89.7049 -22.5674 35.7722
RightLeg  46.7728 5.5638 5.97897
RightFoot  -0.0290644 1.26311 -12.6883
RightToes  0.00048216 0.542163 -0.142577
Spine  75.0494 -5.42015 7.8044
Spine1  4.42838 1.57942 -5.93431
HEad  -45.0375 -4.31417 3.63779
LeftShoulder1  4.34313 -23.7398 -8.38567
LeftArm  -100.78 -64.473 38.6181
LeftForeArm  2.71575 -16.225 0.309405
LeftHand  -0.25398 0.0180481 5.50724
RightShoulder  1.76135 16.0296 0.693399
RightArm  -77.851 45.0884 -17.4078
RightForeArm  -25.5873 14.0745 0.817081
RightHand  0.204307 11.222 0.898295
LeftUpLeg  -86.5103 23.5315 -28.4497
LeftLeg  47.236 1.10243 1.70717
LeftFoot  -5.97158 -0.206968 5.17386
LeftToes  1.06243e-005 4.65856e-005 -8.18505e-006
84
root  -42.3318 36.0136 -29.6191 44.9718 -83.2315 -1.95661
RightUpLeg  -90.4993 -22.5424 36.8179
RightLeg  47.0345 5.46915 5.92726
RightFoot  -0.00479719 1.29585 -12.9835
RightToes  0.00048216 0.542163 -0.142577
Spine  74.8647 -5.193 7.40676
Spine1  5.74614 1.44602 -5.65208
HEad  -45.4111 -3.52427 2.48765
LeftShoulder1  4.5014 -22.8074 -9.68885
LeftArm  -109.81 -64.5432 39.189
LeftForeArm  8.23171 -20.9743 -2.9253
LeftHand  -0.25398 0.0180481 5.50724
RightShoulder  2.001 14.8631 2.81544
RightArm  -86.7129 45.5704 -17.54
RightForeArm  -17.4601 19.6531 3.67347
RightHand  0.717703 10.2637 4.77128
LeftUpLeg  -87.1171 23.6516 -29.0696
LeftLeg  46.9697 0.54409 1.05203
LeftFoot  -6.02432 -0.205361 5.20404
LeftToes  1.06243e-005 4.65856e-005 -8.18505e-006
85
root  -42.4081 36.0336 -29.6407 46.1772 -82.7669 -2.79687
RightUpLeg  -90.874 -22.5791 37.5954
RightLeg  46.9799 5.27527 5.69603
RightFoot  0.142752 1.3661 -13.4969
RightToes  0.00048216 0.542163 -0.142577
Spine  74.7495 -5.05011 7.2393
Spine1  6.32846 1.35947 -5.46379
HEad  -45.206 -3.16136 1.47039
LeftShoulder1  4.66007 -22.1489 -10.8662
LeftArm  -110.794 -64.3579 39.3021
LeftForeArm  10.214 -24.3715 -4.7945
LeftHand  -0.25398 0.0180481 5.50724
RightShoulder  2.26008 14.4688 4.71439
RightArm  -88.2558 45.2234 -18.0088
RightForeArm  -14.3436 23.1826 5.63496
RightHand  1.10222 9.40106 8.0814
LeftUpLeg  -87.3077 23.5243 -29.15
LeftLeg  46.6375 0.342791 0.813451
LeftFoot  -5.9833 -0.228572 5.6468
LeftToes  1.06243e-005 4.65856e-005 -8.18505e-006
86
root  -42.366 36.0875 -29.6141 47.5281 -82.3345 -4.1309
RightUpLeg  -90.8104 -22.6901 38.1078
RightLeg  46.5208 5.17687 5.49327
RightFoot  0.237715 1.41551 -13.8596
RightToes  0.00048216 0.542163 -0.142577
Spine  74.7343 -5.08898 7.14923
Spine1  6.42547 1.29321 -5.7022
HEad  -44.7929 -2.85541 0.782379
LeftShoulder1  4.61315 -21.6137 -11.0944
LeftArm  -106.944 -63.9161 39.2522
LeftForeArm  8.24776 -25.9967 -5.14273
LeftHand  -0.25398 0.0180481 5.50724
RightShoulder  2.428 14.6441 5.62484
RightArm  -86.0746 44.2851 -17.5049
RightForeArm  -15.7763 25.28 6.19861
RightHand  1.39926 8.99748 10.7024
LeftUpLeg  -87.2493 23.2815 -28.8662
LeftLeg  46.2823 0.365957 0.832011
LeftFoot  -5.38225 -0.29137 6.21261
LeftToes  1.06243e-005 4.65856e-005 -8.18505e-006
87
root  -42.2283 36.1583 -29.5529 47.5961 -81.9815 -4.59111
RightUpLeg  -90.4258 -23.0585 38.3573
RightLeg  45.8036 5.27403 5.46103
RightFoot  0.55739 1.48027 -14.0779
RightToes  0.00048216 0.542163 -0.142577
Spine  74.6982 -5.21359 7.03403
Spine1  6.55246 1.24863 -6.09475
HEad  -44.5481 -2.47634 0.135519
LeftShoulder1  4.45305 -21.1945 -10.7298
LeftArm  -102.98 -63.6376 38.2306
LeftForeArm  5.55018 -27.4465 -5.6218
LeftHand  -0.25398 0.0180481 5.50724
RightShoulder  2.54375 14.8527 6.16251
RightArm  -84.4558 43.2021 -16.3476
RightForeArm  -17.0197 27.0037 6.65403
RightHand  1.59341 8.78269 12.4488
LeftUpLeg  -86.8346 23.0153 -28.4757
LeftLeg  45.9489 0.519502 0.995393
LeftFoot  -4.56396 -0.360467 6.54891
LeftToes  1.06243e-005 4.65856e-005 -8.18505e-006
